# xmcd
# 
# Track frame offsets:
#     150
#     18550
#     46227
#     67075
# 
# Disc length: 1140
# 
# Revision: 0
# Processed by: cddbd v1.5.2PL0 Copyright (c) Steve Scherf et al.
# Submitted via: fre:ac v1.0.17
# 
DISCID=31047204
DTITLE=Elton John - If The River Can Bend [CD Single)
DYEAR=0
DGENRE=
TTITLE0=If The River Can Bend (Edit)
TTITLE1=Don't Let The Sun Go Down On Me (Live In Paris)
TTITLE2=I Guess That's Why They Call It The Blues (Live In Paris)
TTITLE3=Sorry Seems To Be The Hardest Word (Live In Paris)
EXTD=
EXTT0=
EXTT1=
EXTT2=
EXTT3=
PLAYORDER=
